{
  "accessors": [
    {
      "bufferView": 2,
      "componentType": 5126,
      "count": 23482,
      "max": [
        4.96683931350708,
        7.782099723815918,
        15.021783828735352
      ],
      "min": [
        -4.96683931350708,
        -6.926094055175781,
        0.3232423663139343
      ],
      "type": "VEC3"
    },
    {
      "bufferView": 2,
      "byteOffset": 281784,
      "componentType": 5126,
      "count": 23482,
      "max": [
        0.9999640583992004,
        0.9999916553497314,
        0.9999632835388184
      ],
      "min": [
        -0.9999641180038452,
        -0.9999801516532898,
        -0.9999904632568359
      ],
      "type": "VEC3"
    },
    {
      "bufferView": 3,
      "componentType": 5126,
      "count": 23482,
      "max": [
        0.99998539686203,
        0.9999589323997498,
        0.9998781085014343,
        1.0
      ],
      "min": [
        -0.9999854564666748,
        -0.9998019337654114,
        -0.9999145865440369,
        -1.0
      ],
      "type": "VEC4"
    },
    {
      "bufferView": 1,
      "componentType": 5126,
      "count": 23482,
      "max": [
        0.9988438487052917,
        0.9921437501907349
      ],
      "min": [
        0.0010007809614762664,
        0.001007014187052846
      ],
      "type": "VEC2"
    },
    {
      "bufferView": 1,
      "byteOffset": 187856,
      "componentType": 5126,
      "count": 23482,
      "max": [
        0.9988438487052917,
        0.9921437501907349
      ],
      "min": [
        0.0010007809614762664,
        0.001007014187052846
      ],
      "type": "VEC2"
    },
    {
      "bufferView": 0,
      "componentType": 5125,
      "count": 102204,
      "type": "SCALAR"
    },
    {
      "bufferView": 2,
      "byteOffset": 563568,
      "componentType": 5126,
      "count": 1071,
      "max": [
        5.0062150955200195,
        7.275467395782471,
        14.674970626831055
      ],
      "min": [
        -4.986946105957031,
        -4.220949649810791,
        3.7322440147399902
      ],
      "type": "VEC3"
    },
    {
      "bufferView": 2,
      "byteOffset": 576420,
      "componentType": 5126,
      "count": 1071,
      "max": [
        0.9991136789321899,
        0.9988473653793335,
        0.9964054822921753
      ],
      "min": [
        -0.9996747970581055,
        -0.9998521208763123,
        -0.9997217655181885
      ],
      "type": "VEC3"
    },
    {
      "bufferView": 3,
      "byteOffset": 375712,
      "componentType": 5126,
      "count": 1071,
      "max": [
        0.9991666078567505,
        0.9994985461235046,
        0.9996402263641357,
        1.0
      ],
      "min": [
        -0.9999554753303528,
        -0.9996411204338074,
        -0.9997948408126831,
        -1.0
      ],
      "type": "VEC4"
    },
    {
      "bufferView": 1,
      "byteOffset": 375712,
      "componentType": 5126,
      "count": 1071,
      "max": [
        0.9988612532615662,
        0.8950517177581787
      ],
      "min": [
        0.0009969931561499834,
        0.0010091002332046628
      ],
      "type": "VEC2"
    },
    {
      "bufferView": 1,
      "byteOffset": 384280,
      "componentType": 5126,
      "count": 1071,
      "max": [
        0.9988612532615662,
        0.8950517177581787
      ],
      "min": [
        0.0009969931561499834,
        0.0010091002332046628
      ],
      "type": "VEC2"
    },
    {
      "bufferView": 0,
      "byteOffset": 408816,
      "componentType": 5125,
      "count": 4344,
      "type": "SCALAR"
    },
    {
      "bufferView": 2,
      "byteOffset": 589272,
      "componentType": 5126,
      "count": 1760,
      "max": [
        5.873280048370361,
        8.399971961975098,
        15.24106502532959
      ],
      "min": [
        -5.873280048370361,
        -9.934114456176758,
        -2.6838438510894775
      ],
      "type": "VEC3"
    },
    {
      "bufferView": 2,
      "byteOffset": 610392,
      "componentType": 5126,
      "count": 1760,
      "max": [
        1.0,
        1.0,
        1.0
      ],
      "min": [
        -1.0,
        -1.0,
        -1.0
      ],
      "type": "VEC3"
    },
    {
      "bufferView": 3,
      "byteOffset": 392848,
      "componentType": 5126,
      "count": 1760,
      "max": [
        1.0,
        1.0,
        1.0,
        1.0
      ],
      "min": [
        -1.0,
        -1.0,
        -1.0,
        -1.0
      ],
      "type": "VEC4"
    },
    {
      "bufferView": 1,
      "byteOffset": 392848,
      "componentType": 5126,
      "count": 1760,
      "max": [
        0.9989839196205139,
        0.9982720613479614
      ],
      "min": [
        0.0010109991999343038,
        0.0010082691442221403
      ],
      "type": "VEC2"
    },
    {
      "bufferView": 0,
      "byteOffset": 426192,
      "componentType": 5125,
      "count": 5031,
      "type": "SCALAR"
    },
    {
      "bufferView": 2,
      "byteOffset": 631512,
      "componentType": 5126,
      "count": 14259,
      "max": [
        3.846769332885742,
        8.714325904846191,
        12.043085098266602
      ],
      "min": [
        -3.3706552982330322,
        -8.82418155670166,
        -2.754690170288086
      ],
      "type": "VEC3"
    },
    {
      "bufferView": 2,
      "byteOffset": 802620,
      "componentType": 5126,
      "count": 14259,
      "max": [
        1.0,
        1.0,
        1.0
      ],
      "min": [
        -1.0,
        -1.0,
        -1.0
      ],
      "type": "VEC3"
    },
    {
      "bufferView": 3,
      "byteOffset": 421008,
      "componentType": 5126,
      "count": 14259,
      "max": [
        1.0,
        1.0,
        1.0,
        1.0
      ],
      "min": [
        -1.0,
        -1.0,
        -1.0,
        -1.0
      ],
      "type": "VEC4"
    },
    {
      "bufferView": 1,
      "byteOffset": 406928,
      "componentType": 5126,
      "count": 14259,
      "max": [
        0.9988728165626526,
        0.9989987015724182
      ],
      "min": [
        0.0,
        0.0
      ],
      "type": "VEC2"
    },
    {
      "bufferView": 1,
      "byteOffset": 521000,
      "componentType": 5126,
      "count": 14259,
      "max": [
        0.9988728165626526,
        0.9989987015724182
      ],
      "min": [
        0.0,
        0.0
      ],
      "type": "VEC2"
    },
    {
      "bufferView": 0,
      "byteOffset": 446316,
      "componentType": 5125,
      "count": 46239,
      "type": "SCALAR"
    },
    {
      "bufferView": 2,
      "byteOffset": 973728,
      "componentType": 5126,
      "count": 2987,
      "max": [
        4.606338977813721,
        10.446447372436523,
        0.1066439151763916
      ],
      "min": [
        -4.4100661277771,
        -8.51501178741455,
        -5.286890506744385
      ],
      "type": "VEC3"
    },
    {
      "bufferView": 2,
      "byteOffset": 1009572,
      "componentType": 5126,
      "count": 2987,
      "max": [
        0.9999374151229858,
        0.9852496981620789,
        0.9998369216918945
      ],
      "min": [
        -0.9992189407348633,
        -0.9986399412155151,
        -0.9999172687530518
      ],
      "type": "VEC3"
    },
    {
      "bufferView": 3,
      "byteOffset": 649152,
      "componentType": 5126,
      "count": 2987,
      "max": [
        0.9982813596725464,
        0.9998944997787476,
        0.9939405918121338,
        1.0
      ],
      "min": [
        -0.9988656044006348,
        -0.9998157024383545,
        -0.9995498061180115,
        1.0
      ],
      "type": "VEC4"
    },
    {
      "bufferView": 1,
      "byteOffset": 635072,
      "componentType": 5126,
      "count": 2987,
      "max": [
        0.9981405735015869,
        0.9984357953071594
      ],
      "min": [
        0.001526890555396676,
        0.0015163830248638988
      ],
      "type": "VEC2"
    },
    {
      "bufferView": 1,
      "byteOffset": 658968,
      "componentType": 5126,
      "count": 2987,
      "max": [
        0.9981405735015869,
        0.9984357953071594
      ],
      "min": [
        0.001526890555396676,
        0.0015163830248638988
      ],
      "type": "VEC2"
    },
    {
      "bufferView": 0,
      "byteOffset": 631272,
      "componentType": 5125,
      "count": 13329,
      "type": "SCALAR"
    },
    {
      "bufferView": 2,
      "byteOffset": 1045416,
      "componentType": 5126,
      "count": 2966,
      "max": [
        2.0200986862182617,
        1.2470052242279053,
        1.3499813079833984
      ],
      "min": [
        -1.1896439790725708,
        -1.8839476108551025,
        -1.106327772140503
      ],
      "type": "VEC3"
    },
    {
      "bufferView": 2,
      "byteOffset": 1081008,
      "componentType": 5126,
      "count": 2966,
      "max": [
        0.9993500113487244,
        0.9997999668121338,
        0.999422013759613
      ],
      "min": [
        -0.9981010556221008,
        -0.9997999668121338,
        -0.9932148456573486
      ],
      "type": "VEC3"
    },
    {
      "bufferView": 3,
      "byteOffset": 696944,
      "componentType": 5126,
      "count": 2966,
      "max": [
        0.9971525073051453,
        0.9989160895347595,
        0.9976659417152405,
        1.0
      ],
      "min": [
        -0.9997091889381409,
        -0.9998164772987366,
        -0.9984069466590881,
        -1.0
      ],
      "type": "VEC4"
    },
    {
      "bufferView": 1,
      "byteOffset": 682864,
      "componentType": 5126,
      "count": 2966,
      "max": [
        0.9937337636947632,
        0.9887464642524719
      ],
      "min": [
        0.0,
        -0.00041377730667591095
      ],
      "type": "VEC2"
    },
    {
      "bufferView": 1,
      "byteOffset": 706592,
      "componentType": 5126,
      "count": 2966,
      "max": [
        0.9937337636947632,
        0.9887464642524719
      ],
      "min": [
        0.0,
        -0.00041377730667591095
      ],
      "type": "VEC2"
    },
    {
      "bufferView": 1,
      "byteOffset": 730320,
      "componentType": 5126,
      "count": 2966,
      "max": [
        0.9937337636947632,
        0.9887464642524719
      ],
      "min": [
        0.0,
        -0.00041377730667591095
      ],
      "type": "VEC2"
    },
    {
      "bufferView": 0,
      "byteOffset": 684588,
      "componentType": 5125,
      "count": 8334,
      "type": "SCALAR"
    }
  ],
  "asset": {
    "extras": {
      "author": "d_kostash (https://sketchfab.com/d_kostash)",
      "license": "CC-BY-4.0 (http://creativecommons.org/licenses/by/4.0/)",
      "source": "https://sketchfab.com/3d-models/going-merry-1760c031d3e64429b0d15c98cfa0d208",
      "title": "Going Merry"
    },
    "generator": "Sketchfab-15.25.0",
    "version": "2.0"
  },
  "bufferViews": [
    {
      "buffer": 0,
      "byteLength": 717924,
      "name": "floatBufferViews",
      "target": 34963
    },
    {
      "buffer": 0,
      "byteLength": 754048,
      "byteOffset": 717924,
      "byteStride": 8,
      "name": "floatBufferViews",
      "target": 34962
    },
    {
      "buffer": 0,
      "byteLength": 1116600,
      "byteOffset": 1471972,
      "byteStride": 12,
      "name": "floatBufferViews",
      "target": 34962
    },
    {
      "buffer": 0,
      "byteLength": 744400,
      "byteOffset": 2588572,
      "byteStride": 16,
      "name": "floatBufferViews",
      "target": 34962
    }
  ],
  "buffers": [
    {
      "byteLength": 3332972,
      "uri": "scene.bin"
    }
  ],
  "images": [
    {
      "uri": "textures/M_Sails_and_Ropes_baseColor.png"
    },
    {
      "uri": "textures/M_Sails_and_Ropes_metallicRoughness.png"
    },
    {
      "uri": "textures/M_Sails_and_Ropes_normal.png"
    },
    {
      "uri": "textures/M_Body_Base_baseColor.png"
    },
    {
      "uri": "textures/M_Body_Base_metallicRoughness.png"
    },
    {
      "uri": "textures/M_Body_Base_normal.png"
    },
    {
      "uri": "textures/M_Body_Details_baseColor.png"
    },
    {
      "uri": "textures/M_Body_Details_metallicRoughness.png"
    },
    {
      "uri": "textures/M_Body_Details_normal.png"
    },
    {
      "uri": "textures/M_Cloud_baseColor.png"
    },
    {
      "uri": "textures/M_Cloud_normal.png"
    },
    {
      "uri": "textures/M_Bushes_baseColor.png"
    },
    {
      "uri": "textures/M_Bushes_metallicRoughness.png"
    },
    {
      "uri": "textures/M_Bushes_normal.png"
    }
  ],
  "materials": [
    {
      "alphaMode": "BLEND",
      "doubleSided": true,
      "name": "M_Sails_and_Ropes",
      "normalTexture": {
        "index": 2
      },
      "pbrMetallicRoughness": {
        "baseColorTexture": {
          "index": 0
        },
        "metallicFactor": 0.0,
        "metallicRoughnessTexture": {
          "index": 1
        }
      }
    },
    {
      "doubleSided": true,
      "name": "M_Body_Base",
      "normalTexture": {
        "index": 5
      },
      "pbrMetallicRoughness": {
        "baseColorTexture": {
          "index": 3
        },
        "metallicRoughnessTexture": {
          "index": 4
        }
      }
    },
    {
      "doubleSided": true,
      "name": "M_Body_Details",
      "normalTexture": {
        "index": 8
      },
      "pbrMetallicRoughness": {
        "baseColorTexture": {
          "index": 6
        },
        "metallicRoughnessTexture": {
          "index": 7
        }
      }
    },
    {
      "doubleSided": true,
      "name": "M_Cloud",
      "normalTexture": {
        "index": 10
      },
      "pbrMetallicRoughness": {
        "baseColorTexture": {
          "index": 9
        },
        "metallicFactor": 0.0,
        "roughnessFactor": 0.9737172532335336
      }
    },
    {
      "alphaMode": "BLEND",
      "doubleSided": true,
      "name": "M_Bushes",
      "normalTexture": {
        "index": 13
      },
      "pbrMetallicRoughness": {
        "baseColorTexture": {
          "index": 11
        },
        "metallicFactor": 0.0,
        "metallicRoughnessTexture": {
          "index": 12
        }
      }
    }
  ],
  "meshes": [
    {
      "name": "Ropes_M_Sails_and_Ropes_0",
      "primitives": [
        {
          "attributes": {
            "NORMAL": 1,
            "POSITION": 0,
            "TANGENT": 2,
            "TEXCOORD_0": 3,
            "TEXCOORD_1": 4
          },
          "indices": 5,
          "material": 0,
          "mode": 4
        }
      ]
    },
    {
      "name": "Sails_M_Sails_and_Ropes_0",
      "primitives": [
        {
          "attributes": {
            "NORMAL": 7,
            "POSITION": 6,
            "TANGENT": 8,
            "TEXCOORD_0": 9,
            "TEXCOORD_1": 10
          },
          "indices": 11,
          "material": 0,
          "mode": 4
        }
      ]
    },
    {
      "name": "Body_M_Body_Base_0",
      "primitives": [
        {
          "attributes": {
            "NORMAL": 13,
            "POSITION": 12,
            "TANGENT": 14,
            "TEXCOORD_0": 15
          },
          "indices": 16,
          "material": 1,
          "mode": 4
        }
      ]
    },
    {
      "name": "Body_M_Body_Details_0",
      "primitives": [
        {
          "attributes": {
            "NORMAL": 18,
            "POSITION": 17,
            "TANGENT": 19,
            "TEXCOORD_0": 20,
            "TEXCOORD_1": 21
          },
          "indices": 22,
          "material": 2,
          "mode": 4
        }
      ]
    },
    {
      "name": "Cloud_M_Cloud_0",
      "primitives": [
        {
          "attributes": {
            "NORMAL": 24,
            "POSITION": 23,
            "TANGENT": 25,
            "TEXCOORD_0": 26,
            "TEXCOORD_1": 27
          },
          "indices": 28,
          "material": 3,
          "mode": 4
        }
      ]
    },
    {
      "name": "Bushes_M_Bushes_0",
      "primitives": [
        {
          "attributes": {
            "NORMAL": 30,
            "POSITION": 29,
            "TANGENT": 31,
            "TEXCOORD_0": 32,
            "TEXCOORD_1": 33,
            "TEXCOORD_2": 34
          },
          "indices": 35,
          "material": 4,
          "mode": 4
        }
      ]
    }
  ],
  "nodes": [
    {
      "children": [
        1
      ],
      "matrix": [
        1.0,
        0.0,
        0.0,
        0.0,
        0.0,
        2.220446049250313e-16,
        -1.0,
        0.0,
        0.0,
        1.0,
        2.220446049250313e-16,
        0.0,
        0.0,
        0.0,
        0.0,
        1.0
      ],
      "name": "Sketchfab_model"
    },
    {
      "children": [
        2
      ],
      "matrix": [
        1.0,
        0.0,
        0.0,
        0.0,
        0.0,
        0.0,
        1.0,
        0.0,
        0.0,
        -1.0,
        0.0,
        0.0,
        0.0,
        0.0,
        0.0,
        1.0
      ],
      "name": "b40ed4a2d9324871a12e902e4596d4b1.fbx"
    },
    {
      "children": [
        3,
        5,
        7,
        10,
        12
      ],
      "name": "RootNode"
    },
    {
      "children": [
        4
      ],
      "matrix": [
        1.0,
        0.0,
        0.0,
        0.0,
        0.0,
        -1.6292067939183141e-07,
        -0.9999999999999868,
        0.0,
        0.0,
        0.9999999999999868,
        -1.6292067939183141e-07,
        0.0,
        0.0,
        0.0,
        0.0,
        1.0
      ],
      "name": "Ropes"
    },
    {
      "mesh": 0,
      "name": "Ropes_M_Sails_and_Ropes_0"
    },
    {
      "children": [
        6
      ],
      "matrix": [
        1.0,
        0.0,
        0.0,
        0.0,
        0.0,
        -1.6292067939183141e-07,
        -0.9999999999999868,
        0.0,
        0.0,
        0.9999999999999868,
        -1.6292067939183141e-07,
        0.0,
        0.0,
        0.0,
        0.0,
        1.0
      ],
      "name": "Sails"
    },
    {
      "mesh": 1,
      "name": "Sails_M_Sails_and_Ropes_0"
    },
    {
      "children": [
        8,
        9
      ],
      "matrix": [
        1.0,
        0.0,
        0.0,
        0.0,
        0.0,
        -1.6292067939183141e-07,
        -0.9999999999999868,
        0.0,
        0.0,
        0.9999999999999868,
        -1.6292067939183141e-07,
        0.0,
        0.0,
        0.0,
        0.0,
        1.0
      ],
      "name": "Body"
    },
    {
      "mesh": 2,
      "name": "Body_M_Body_Base_0"
    },
    {
      "mesh": 3,
      "name": "Body_M_Body_Details_0"
    },
    {
      "children": [
        11
      ],
      "matrix": [
        1.0,
        0.0,
        0.0,
        0.0,
        0.0,
        -1.6292067939183141e-07,
        -0.9999999999999868,
        0.0,
        0.0,
        0.9999999999999868,
        -1.6292067939183141e-07,
        0.0,
        0.0,
        0.0,
        0.0,
        1.0
      ],
      "name": "Cloud"
    },
    {
      "mesh": 4,
      "name": "Cloud_M_Cloud_0"
    },
    {
      "children": [
        13
      ],
      "matrix": [
        0.7081799448498385,
        -0.12395495118371587,
        0.8260896756029252,
        0.0,
        0.6826003376453337,
        -0.5383929358895286,
        -0.6659571663965842,
        0.0,
        0.48150417267666307,
        0.9455561054434101,
        -0.27089702748807926,
        0.0,
        -0.15365196764469147,
        4.682000637054443,
        -5.075974464416504,
        1.0
      ],
      "name": "Bushes"
    },
    {
      "mesh": 5,
      "name": "Bushes_M_Bushes_0"
    }
  ],
  "samplers": [
    {
      "magFilter": 9729,
      "minFilter": 9987,
      "wrapS": 10497,
      "wrapT": 10497
    }
  ],
  "scene": 0,
  "scenes": [
    {
      "name": "Sketchfab_Scene",
      "nodes": [
        0
      ]
    }
  ],
  "textures": [
    {
      "sampler": 0,
      "source": 0
    },
    {
      "sampler": 0,
      "source": 1
    },
    {
      "sampler": 0,
      "source": 2
    },
    {
      "sampler": 0,
      "source": 3
    },
    {
      "sampler": 0,
      "source": 4
    },
    {
      "sampler": 0,
      "source": 5
    },
    {
      "sampler": 0,
      "source": 6
    },
    {
      "sampler": 0,
      "source": 7
    },
    {
      "sampler": 0,
      "source": 8
    },
    {
      "sampler": 0,
      "source": 9
    },
    {
      "sampler": 0,
      "source": 10
    },
    {
      "sampler": 0,
      "source": 11
    },
    {
      "sampler": 0,
      "source": 12
    },
    {
      "sampler": 0,
      "source": 13
    }
  ]
}
