{
  "accessors": [
    {
      "bufferView": 2,
      "componentType": 5126,
      "count": 582,
      "max": [
        10.074258804321289,
        4.484787940979004,
        1.1546380519866943
      ],
      "min": [
        -8.830551147460938,
        -16.700347900390625,
        -1.1330922842025757
      ],
      "type": "VEC3"
    },
    {
      "bufferView": 2,
      "byteOffset": 6984,
      "componentType": 5126,
      "count": 582,
      "max": [
        0.9998371005058289,
        0.9998527765274048,
        1.0
      ],
      "min": [
        -0.999870240688324,
        -0.9883421659469604,
        -1.0
      ],
      "type": "VEC3"
    },
    {
      "bufferView": 1,
      "componentType": 5126,
      "count": 582,
      "max": [
        0.9905223846435547,
        0.9904953837394714
      ],
      "min": [
        0.01067635603249073,
        0.04873466491699219
      ],
      "type": "VEC2"
    },
    {
      "bufferView": 0,
      "componentType": 5125,
      "count": 2472,
      "type": "SCALAR"
    }
  ],
  "asset": {
    "extras": {
      "author": "Farid (https://sketchfab.com/farid1)",
      "license": "CC-BY-4.0 (http://creativecommons.org/licenses/by/4.0/)",
      "source": "https://sketchfab.com/3d-models/simple-red-arrow-10d31661bb98445a9a8bf45c018682f4",
      "title": "Simple Red Arrow"
    },
    "generator": "Sketchfab-13.98.0",
    "version": "2.0"
  },
  "bufferViews": [
    {
      "buffer": 0,
      "byteLength": 9888,
      "name": "floatBufferViews",
      "target": 34963
    },
    {
      "buffer": 0,
      "byteLength": 4656,
      "byteOffset": 9888,
      "byteStride": 8,
      "name": "floatBufferViews",
      "target": 34962
    },
    {
      "buffer": 0,
      "byteLength": 13968,
      "byteOffset": 14544,
      "byteStride": 12,
      "name": "floatBufferViews",
      "target": 34962
    }
  ],
  "buffers": [
    {
      "byteLength": 28512,
      "uri": "scene.bin"
    }
  ],
  "materials": [
    {
      "doubleSided": true,
      "name": "Material",
      "pbrMetallicRoughness": {
        "baseColorFactor": [
          0.8,
          0.0271165,
          0.0417381,
          1.0
        ],
        "metallicFactor": 0.0,
        "roughnessFactor": 0.9528504549519875
      }
    }
  ],
  "meshes": [
    {
      "name": "node_id30_Material_0",
      "primitives": [
        {
          "attributes": {
            "NORMAL": 1,
            "POSITION": 0,
            "TEXCOORD_0": 2
          },
          "indices": 3,
          "material": 0,
          "mode": 4
        }
      ]
    }
  ],
  "nodes": [
    {
      "children": [
        1
      ],
      "matrix": [
        1.0,
        0.0,
        0.0,
        0.0,
        0.0,
        2.220446049250313e-16,
        -1.0,
        0.0,
        0.0,
        1.0,
        2.220446049250313e-16,
        0.0,
        0.0,
        0.0,
        0.0,
        1.0
      ],
      "name": "Sketchfab_model"
    },
    {
      "children": [
        2
      ],
      "matrix": [
        0.009999999776482582,
        0.0,
        0.0,
        0.0,
        0.0,
        0.0,
        0.009999999776482582,
        0.0,
        0.0,
        -0.009999999776482582,
        0.0,
        0.0,
        0.0,
        0.0,
        0.0,
        1.0
      ],
      "name": "e1493ad87f484fd28e50762a5ddbb42b.fbx"
    },
    {
      "children": [
        3,
        6
      ],
      "name": "RootNode"
    },
    {
      "children": [
        4
      ],
      "matrix": [
        100.0,
        0.0,
        0.0,
        0.0,
        0.0,
        99.9999999999991,
        1.3435887069590498e-05,
        0.0,
        0.0,
        -1.3435887069590498e-05,
        99.9999999999991,
        0.0,
        0.0,
        0.0,
        0.0,
        1.0
      ],
      "name": "root"
    },
    {
      "children": [
        5
      ],
      "matrix": [
        -0.10000000149011576,
        -1.2246468173960086e-17,
        -8.74227813064257e-09,
        0.0,
        -1.2246469244580424e-17,
        0.10000000149011612,
        1.2246468173960086e-17,
        0.0,
        8.74227813064257e-09,
        1.2246469244580424e-17,
        -0.10000000149011576,
        0.0,
        0.0,
        0.0,
        0.0,
        1.0
      ],
      "name": "node_id30"
    },
    {
      "mesh": 0,
      "name": "node_id30_Material_0"
    },
    {
      "children": [
        7
      ],
      "matrix": [
        83.31501198414517,
        49.283277899166926,
        25.095134423158274,
        0.0,
        -49.2832747017232,
        45.570530737530916,
        74.12478692782456,
        0.0,
        25.09514070248239,
        -74.12478480194318,
        62.255511123991084,
        0.0,
        -10.569257736206055,
        29.85162353515625,
        -7.14715576171875,
        1.0
      ],
      "name": "Sun"
    },
    {
      "children": [
        8
      ],
      "matrix": [
        1.0,
        0.0,
        0.0,
        0.0,
        0.0,
        2.220446049250313e-16,
        1.0,
        0.0,
        0.0,
        -1.0,
        2.220446049250313e-16,
        0.0,
        0.0,
        0.0,
        0.0,
        1.0
      ],
      "name": "Object_7"
    },
    {
      "name": "Object_8"
    }
  ],
  "scene": 0,
  "scenes": [
    {
      "name": "Sketchfab_Scene",
      "nodes": [
        0
      ]
    }
  ]
}
