{
  "accessors": [
    {
      "bufferView": 2,
      "componentType": 5126,
      "count": 9722,
      "max": [
        2.5223379135131836,
        2.5381340980529785,
        0.9649810194969177
      ],
      "min": [
        -1.4953500032424927,
        -2.0765769481658936,
        0.01152500044554472
      ],
      "type": "VEC3"
    },
    {
      "bufferView": 2,
      "byteOffset": 116664,
      "componentType": 5126,
      "count": 9722,
      "max": [
        1.0,
        1.0,
        1.0
      ],
      "min": [
        -1.0,
        -1.0,
        -1.0
      ],
      "type": "VEC3"
    },
    {
      "bufferView": 3,
      "componentType": 5126,
      "count": 9722,
      "max": [
        0.9999926686286926,
        1.0,
        0.9972779750823975,
        1.0
      ],
      "min": [
        -1.0,
        -1.0,
        -0.9999804496765137,
        -1.0
      ],
      "type": "VEC4"
    },
    {
      "bufferView": 1,
      "componentType": 5126,
      "count": 9722,
      "max": [
        0.9590950012207031,
        0.9996439814567566
      ],
      "min": [
        0.00035600000410340726,
        0.00035600000410340726
      ],
      "type": "VEC2"
    },
    {
      "bufferView": 0,
      "componentType": 5125,
      "count": 50040,
      "type": "SCALAR"
    },
    {
      "bufferView": 2,
      "byteOffset": 233328,
      "componentType": 5126,
      "count": 1280,
      "max": [
        -0.9330130219459534,
        0.15583999454975128,
        0.7820180058479309
      ],
      "min": [
        -2.5223379135131836,
        -0.012888999655842781,
        0.11190900206565857
      ],
      "type": "VEC3"
    },
    {
      "bufferView": 2,
      "byteOffset": 248688,
      "componentType": 5126,
      "count": 1280,
      "max": [
        0.9995469450950623,
        1.0,
        0.9996840357780457
      ],
      "min": [
        -0.9984139204025269,
        -1.0,
        -0.9863425493240356
      ],
      "type": "VEC3"
    },
    {
      "bufferView": 3,
      "byteOffset": 155552,
      "componentType": 5126,
      "count": 1280,
      "max": [
        0.977330207824707,
        0.9999963641166687,
        0.9702309370040894,
        -1.0
      ],
      "min": [
        -0.9999310970306396,
        -0.9999911785125732,
        -0.9913614988327026,
        -1.0
      ],
      "type": "VEC4"
    },
    {
      "bufferView": 1,
      "byteOffset": 77776,
      "componentType": 5126,
      "count": 1280,
      "max": [
        0.8926640152931213,
        0.8501690030097961
      ],
      "min": [
        0.13430100679397583,
        0.00035600000410340726
      ],
      "type": "VEC2"
    },
    {
      "bufferView": 0,
      "byteOffset": 200160,
      "componentType": 5125,
      "count": 7008,
      "type": "SCALAR"
    }
  ],
  "asset": {
    "extras": {
      "author": "emelyarules (https://sketchfab.com/emelyarules)",
      "license": "CC-BY-4.0 (http://creativecommons.org/licenses/by/4.0/)",
      "source": "https://sketchfab.com/3d-models/inflatable-boat-051fe2f3a1484a0bafd45bad054754b1",
      "title": "Inflatable Boat"
    },
    "generator": "Sketchfab-14.77.0",
    "version": "2.0"
  },
  "bufferViews": [
    {
      "buffer": 0,
      "byteLength": 228192,
      "name": "floatBufferViews",
      "target": 34963
    },
    {
      "buffer": 0,
      "byteLength": 88016,
      "byteOffset": 228192,
      "byteStride": 8,
      "name": "floatBufferViews",
      "target": 34962
    },
    {
      "buffer": 0,
      "byteLength": 264048,
      "byteOffset": 316208,
      "byteStride": 12,
      "name": "floatBufferViews",
      "target": 34962
    },
    {
      "buffer": 0,
      "byteLength": 176032,
      "byteOffset": 580256,
      "byteStride": 16,
      "name": "floatBufferViews",
      "target": 34962
    }
  ],
  "buffers": [
    {
      "byteLength": 756288,
      "uri": "scene.bin"
    }
  ],
  "images": [
    {
      "uri": "textures/m_IB1_baseColor.png"
    },
    {
      "uri": "textures/m_IB1_metallicRoughness.png"
    },
    {
      "uri": "textures/m_IB1_normal.png"
    }
  ],
  "materials": [
    {
      "doubleSided": true,
      "name": "m_IB1",
      "normalTexture": {
        "index": 2
      },
      "occlusionTexture": {
        "index": 1
      },
      "pbrMetallicRoughness": {
        "baseColorTexture": {
          "index": 0
        },
        "metallicRoughnessTexture": {
          "index": 1
        }
      }
    }
  ],
  "meshes": [
    {
      "name": "Object_0",
      "primitives": [
        {
          "attributes": {
            "NORMAL": 1,
            "POSITION": 0,
            "TANGENT": 2,
            "TEXCOORD_0": 3
          },
          "indices": 4,
          "material": 0,
          "mode": 4
        }
      ]
    },
    {
      "name": "Object_1",
      "primitives": [
        {
          "attributes": {
            "NORMAL": 6,
            "POSITION": 5,
            "TANGENT": 7,
            "TEXCOORD_0": 8
          },
          "indices": 9,
          "material": 0,
          "mode": 4
        }
      ]
    }
  ],
  "nodes": [
    {
      "children": [
        1
      ],
      "matrix": [
        1.0,
        0.0,
        0.0,
        0.0,
        0.0,
        2.220446049250313e-16,
        -1.0,
        0.0,
        0.0,
        1.0,
        2.220446049250313e-16,
        0.0,
        0.0,
        0.0,
        0.0,
        1.0
      ],
      "name": "Sketchfab_model"
    },
    {
      "children": [
        2,
        3
      ],
      "name": "inflatable_boat_low.obj.cleaner.materialmerger.gles"
    },
    {
      "mesh": 0,
      "name": "Object_2"
    },
    {
      "mesh": 1,
      "name": "Object_3"
    }
  ],
  "samplers": [
    {
      "magFilter": 9729,
      "minFilter": 9987,
      "wrapS": 10497,
      "wrapT": 10497
    }
  ],
  "scene": 0,
  "scenes": [
    {
      "name": "Sketchfab_Scene",
      "nodes": [
        0
      ]
    }
  ],
  "textures": [
    {
      "sampler": 0,
      "source": 0
    },
    {
      "sampler": 0,
      "source": 1
    },
    {
      "sampler": 0,
      "source": 2
    }
  ]
}
