{
  "accessors": [
    {
      "bufferView": 2,
      "componentType": 5126,
      "count": 13786,
      "max": [
        1.0476487874984741,
        1.684584379196167,
        59.951873779296875
      ],
      "min": [
        -1.0560857057571411,
        -1.2014234066009521,
        -7.6847639083862305
      ],
      "type": "VEC3"
    },
    {
      "bufferView": 2,
      "byteOffset": 165432,
      "componentType": 5126,
      "count": 13786,
      "max": [
        1.0,
        1.0,
        1.0
      ],
      "min": [
        -1.0,
        -1.0,
        -1.0
      ],
      "type": "VEC3"
    },
    {
      "bufferView": 1,
      "componentType": 5126,
      "count": 13786,
      "max": [
        0.956322193145752,
        0.9726482629776001
      ],
      "min": [
        0.042433228343725204,
        0.03829862177371979
      ],
      "type": "VEC2"
    },
    {
      "bufferView": 0,
      "componentType": 5125,
      "count": 21639,
      "type": "SCALAR"
    }
  ],
  "asset": {
    "extras": {
      "author": "Alex Martire (https://sketchfab.com/alexmartire)",
      "license": "CC-BY-NC-4.0 (http://creativecommons.org/licenses/by-nc/4.0/)",
      "source": "https://sketchfab.com/3d-models/endurance-ship-low-poly-d57f8ec042c44b4dae1fa828c742c858",
      "title": "Endurance ship - Low Poly"
    },
    "generator": "Sketchfab-12.66.0",
    "version": "2.0"
  },
  "bufferViews": [
    {
      "buffer": 0,
      "byteLength": 86556,
      "name": "floatBufferViews",
      "target": 34963
    },
    {
      "buffer": 0,
      "byteLength": 110288,
      "byteOffset": 86556,
      "byteStride": 8,
      "name": "floatBufferViews",
      "target": 34962
    },
    {
      "buffer": 0,
      "byteLength": 330864,
      "byteOffset": 196844,
      "byteStride": 12,
      "name": "floatBufferViews",
      "target": 34962
    }
  ],
  "buffers": [
    {
      "byteLength": 527708,
      "uri": "scene.bin"
    }
  ],
  "images": [
    {
      "uri": "textures/Material_Endurance_baseColor.jpeg"
    }
  ],
  "materials": [
    {
      "doubleSided": true,
      "name": "Material_Endurance",
      "pbrMetallicRoughness": {
        "baseColorTexture": {
          "index": 0
        },
        "metallicFactor": 0.0,
        "roughnessFactor": 0.8211145618000169
      }
    }
  ],
  "meshes": [
    {
      "name": "Endurance_Join_Material_Endurance_0",
      "primitives": [
        {
          "attributes": {
            "NORMAL": 1,
            "POSITION": 0,
            "TEXCOORD_0": 2
          },
          "indices": 3,
          "material": 0,
          "mode": 4
        }
      ]
    }
  ],
  "nodes": [
    {
      "children": [
        1
      ],
      "matrix": [
        1.0,
        0.0,
        0.0,
        0.0,
        0.0,
        2.220446049250313e-16,
        -1.0,
        0.0,
        0.0,
        1.0,
        2.220446049250313e-16,
        0.0,
        0.0,
        -5.961847818980461e-06,
        8.844421245157717e-06,
        1.0
      ],
      "name": "Sketchfab_model"
    },
    {
      "children": [
        2
      ],
      "matrix": [
        1.0,
        0.0,
        0.0,
        0.0,
        0.0,
        0.0,
        1.0,
        0.0,
        0.0,
        -1.0,
        0.0,
        0.0,
        0.0,
        0.0,
        0.0,
        1.0
      ],
      "name": "e5f1da3881ef4e6298a27d6580443ce7.fbx"
    },
    {
      "children": [
        3
      ],
      "name": "RootNode"
    },
    {
      "children": [
        4
      ],
      "matrix": [
        27.286001205444336,
        0.0,
        0.0,
        0.0,
        0.0,
        -2.003586015692115e-05,
        -122.97923278808432,
        0.0,
        0.0,
        3.629857301711988,
        -5.91378817690325e-07,
        0.0,
        0.10162732005119324,
        28.18185043334961,
        604.1870727539063,
        1.0
      ],
      "name": "Endurance_Join"
    },
    {
      "mesh": 0,
      "name": "Endurance_Join_Material_Endurance_0"
    }
  ],
  "samplers": [
    {
      "magFilter": 9729,
      "minFilter": 9987,
      "wrapS": 10497,
      "wrapT": 10497
    }
  ],
  "scene": 0,
  "scenes": [
    {
      "name": "Sketchfab_Scene",
      "nodes": [
        0
      ]
    }
  ],
  "textures": [
    {
      "sampler": 0,
      "source": 0
    }
  ]
}
