{
  "accessors": [
    {
      "bufferView": 2,
      "componentType": 5126,
      "count": 3976,
      "max": [
        15.896472930908203,
        1.1680772304534912,
        15.896478652954102
      ],
      "min": [
        -15.896472930908203,
        -1.1680781841278076,
        -15.896478652954102
      ],
      "type": "VEC3"
    },
    {
      "bufferView": 2,
      "byteOffset": 47712,
      "componentType": 5126,
      "count": 3976,
      "max": [
        1.0,
        1.0,
        1.0
      ],
      "min": [
        -1.0,
        -1.0,
        -1.0
      ],
      "type": "VEC3"
    },
    {
      "bufferView": 3,
      "componentType": 5126,
      "count": 3976,
      "max": [
        1.0,
        1.0,
        1.0,
        1.0
      ],
      "min": [
        -1.0,
        -1.0,
        -0.9998704791069031,
        -1.0
      ],
      "type": "VEC4"
    },
    {
      "bufferView": 1,
      "componentType": 5126,
      "count": 3976,
      "max": [
        0.9961546659469604,
        0.9901425242424011
      ],
      "min": [
        0.42469558119773865,
        0.12106692790985107
      ],
      "type": "VEC2"
    },
    {
      "bufferView": 1,
      "byteOffset": 31808,
      "componentType": 5126,
      "count": 3976,
      "max": [
        0.9961546659469604,
        0.9901425242424011
      ],
      "min": [
        0.42469558119773865,
        0.12106692790985107
      ],
      "type": "VEC2"
    },
    {
      "bufferView": 1,
      "byteOffset": 63616,
      "componentType": 5126,
      "count": 3976,
      "max": [
        0.9961546659469604,
        0.9901425242424011
      ],
      "min": [
        0.42469558119773865,
        0.12106692790985107
      ],
      "type": "VEC2"
    },
    {
      "bufferView": 1,
      "byteOffset": 95424,
      "componentType": 5126,
      "count": 3976,
      "max": [
        0.9961546659469604,
        0.9901425242424011
      ],
      "min": [
        0.42469558119773865,
        0.12106692790985107
      ],
      "type": "VEC2"
    },
    {
      "bufferView": 1,
      "byteOffset": 127232,
      "componentType": 5126,
      "count": 3976,
      "max": [
        0.9961546659469604,
        0.9901425242424011
      ],
      "min": [
        0.42469558119773865,
        0.12106692790985107
      ],
      "type": "VEC2"
    },
    {
      "bufferView": 0,
      "componentType": 5125,
      "count": 14316,
      "type": "SCALAR"
    }
  ],
  "asset": {
    "extras": {
      "author": "6lucius (https://sketchfab.com/6lucius)",
      "license": "CC-BY-4.0 (http://creativecommons.org/licenses/by/4.0/)",
      "source": "https://sketchfab.com/3d-models/medal-cs2-terrorist-coin-11299bdc340b4447b33a0897ae1bdd15",
      "title": "MEDAL | CS2 Terrorist Coin"
    },
    "generator": "Sketchfab-15.53.0",
    "version": "2.0"
  },
  "bufferViews": [
    {
      "buffer": 0,
      "byteLength": 57264,
      "name": "floatBufferViews",
      "target": 34963
    },
    {
      "buffer": 0,
      "byteLength": 159040,
      "byteOffset": 57264,
      "byteStride": 8,
      "name": "floatBufferViews",
      "target": 34962
    },
    {
      "buffer": 0,
      "byteLength": 95424,
      "byteOffset": 216304,
      "byteStride": 12,
      "name": "floatBufferViews",
      "target": 34962
    },
    {
      "buffer": 0,
      "byteLength": 63616,
      "byteOffset": 311728,
      "byteStride": 16,
      "name": "floatBufferViews",
      "target": 34962
    }
  ],
  "buffers": [
    {
      "byteLength": 375344,
      "uri": "scene.bin"
    }
  ],
  "extensionsUsed": [
    "KHR_materials_specular"
  ],
  "images": [
    {
      "uri": "textures/scoreboard_logos_baseColor.png"
    },
    {
      "uri": "textures/scoreboard_logos_metallicRoughness.png"
    },
    {
      "uri": "textures/scoreboard_logos_normal.png"
    },
    {
      "uri": "textures/scoreboard_logos_specularf0.png"
    }
  ],
  "materials": [
    {
      "extensions": {
        "KHR_materials_specular": {
          "specularColorFactor": [
            1.0,
            1.0,
            1.0
          ],
          "specularFactor": 1.0,
          "specularTexture": {
            "index": 3
          }
        }
      },
      "name": "scoreboard_logos",
      "normalTexture": {
        "index": 2
      },
      "occlusionTexture": {
        "index": 1
      },
      "pbrMetallicRoughness": {
        "baseColorTexture": {
          "index": 0
        },
        "metallicRoughnessTexture": {
          "index": 1
        }
      }
    }
  ],
  "meshes": [
    {
      "name": "Object_0",
      "primitives": [
        {
          "attributes": {
            "NORMAL": 1,
            "POSITION": 0,
            "TANGENT": 2,
            "TEXCOORD_0": 3,
            "TEXCOORD_1": 4,
            "TEXCOORD_2": 5,
            "TEXCOORD_3": 6,
            "TEXCOORD_4": 7
          },
          "indices": 8,
          "material": 0,
          "mode": 4
        }
      ]
    }
  ],
  "nodes": [
    {
      "children": [
        1
      ],
      "matrix": [
        1.0,
        0.0,
        0.0,
        0.0,
        0.0,
        2.220446049250313e-16,
        -1.0,
        0.0,
        0.0,
        1.0,
        2.220446049250313e-16,
        0.0,
        0.0,
        0.0,
        0.0,
        1.0
      ],
      "name": "Sketchfab_model"
    },
    {
      "children": [
        2
      ],
      "name": "root"
    },
    {
      "children": [
        3
      ],
      "matrix": [
        1.0,
        0.0,
        0.0,
        0.0,
        0.0,
        2.220446049250313e-16,
        1.0,
        0.0,
        0.0,
        -1.0,
        2.220446049250313e-16,
        0.0,
        0.0,
        0.0,
        0.0,
        1.0
      ],
      "name": "GLTF_SceneRootNode"
    },
    {
      "children": [
        4
      ],
      "matrix": [
        0.0,
        -4.50605739281844e-09,
        0.025199700146913126,
        0.0,
        0.02519970014691353,
        0.0,
        0.0,
        0.0,
        0.0,
        0.025199700146913126,
        4.50605739281844e-09,
        0.0,
        0.0,
        0.0,
        0.0,
        1.0
      ],
      "name": "T coin_0"
    },
    {
      "mesh": 0,
      "name": "Object_4"
    }
  ],
  "samplers": [
    {
      "magFilter": 9729,
      "minFilter": 9987,
      "wrapS": 10497,
      "wrapT": 10497
    }
  ],
  "scene": 0,
  "scenes": [
    {
      "name": "Sketchfab_Scene",
      "nodes": [
        0
      ]
    }
  ],
  "textures": [
    {
      "sampler": 0,
      "source": 0
    },
    {
      "sampler": 0,
      "source": 1
    },
    {
      "sampler": 0,
      "source": 2
    },
    {
      "sampler": 0,
      "source": 3
    }
  ]
}
